<svg width="226" height="61" viewBox="0 0 226 61" fill="none" xmlns="http://www.w3.org/2000/svg">
<path d="M74.3644 55.2166C73.12 55.2166 72.2061 54.8782 71.6228 54.2016C71.0472 53.5249 70.7594 52.5527 70.7594 51.2849V45.9532H72.0894V51.3432C72.0894 52.3232 72.2722 53.0388 72.6378 53.4899C73.0111 53.941 73.5944 54.1666 74.3878 54.1666C75.1811 54.1666 75.7606 53.941 76.1261 53.4899C76.4994 53.0388 76.6861 52.3232 76.6861 51.3432V45.9532H77.9694V51.2849C77.9694 52.5527 77.6817 53.5249 77.1061 54.2016C76.5383 54.8782 75.6244 55.2166 74.3644 55.2166ZM82.0816 55.0532V45.9532H84.4616L88.0782 54.0149H88.3582V45.9532H89.5482V55.0532H87.1682L83.5516 46.9916H83.2716V55.0532H82.0816ZM93.7986 55.0532V45.9532H95.1052V55.0532H93.7986ZM101.405 55.0532L98.4886 46.0232V45.9532H99.8652L102.42 53.9332H102.7L105.232 45.9532H106.515V46.0232L103.599 55.0532H101.405ZM109.846 55.0532V45.9532H115.68V47.0499H111.153V49.6282H114.723V50.6782H111.153V53.9566H115.75V55.0532H109.846ZM119.534 55.0532V45.9532H122.929C123.699 45.9532 124.318 46.0621 124.784 46.2799C125.251 46.4977 125.589 46.7893 125.799 47.1549C126.009 47.5204 126.114 47.9288 126.114 48.3799C126.114 48.971 125.947 49.4688 125.613 49.8732C125.286 50.2777 124.8 50.5577 124.154 50.7132L126.371 54.9832V55.0532H124.994L122.859 50.8882H120.818V55.0532H119.534ZM120.818 49.8849H122.848C123.548 49.8849 124.045 49.7604 124.341 49.5116C124.637 49.2549 124.784 48.8971 124.784 48.4382C124.784 47.9716 124.637 47.6177 124.341 47.3766C124.045 47.1277 123.548 47.0032 122.848 47.0032H120.818V49.8849ZM132.911 55.2282C132.32 55.2282 131.799 55.1466 131.348 54.9832C130.905 54.8199 130.528 54.5943 130.216 54.3066C129.913 54.011 129.676 53.6688 129.505 53.2799C129.341 52.891 129.244 52.471 129.213 52.0199H130.473C130.496 52.3777 130.601 52.7238 130.788 53.0582C130.975 53.3849 131.247 53.6532 131.605 53.8632C131.97 54.0732 132.425 54.1782 132.97 54.1782C133.561 54.1782 134.024 54.0499 134.358 53.7932C134.693 53.5288 134.86 53.171 134.86 52.7199C134.86 52.2688 134.696 51.9227 134.37 51.6816C134.051 51.4404 133.646 51.2382 133.156 51.0749L132.281 50.7832C131.838 50.6354 131.414 50.4643 131.01 50.2699C130.605 50.0677 130.275 49.8032 130.018 49.4766C129.761 49.1499 129.633 48.7221 129.633 48.1932C129.633 47.6799 129.758 47.2443 130.006 46.8866C130.255 46.5288 130.601 46.2566 131.045 46.0699C131.488 45.8754 132.001 45.7782 132.585 45.7782C133.293 45.7782 133.876 45.9066 134.335 46.1632C134.794 46.4121 135.14 46.7427 135.373 47.1549C135.606 47.5671 135.739 48.0221 135.77 48.5199H134.51C134.486 48.2321 134.405 47.9599 134.265 47.7032C134.133 47.4466 133.926 47.2366 133.646 47.0732C133.366 46.9099 132.997 46.8282 132.538 46.8282C132.04 46.8282 131.64 46.941 131.336 47.1666C131.041 47.3843 130.893 47.6877 130.893 48.0766C130.893 48.5121 131.064 48.8466 131.406 49.0799C131.756 49.3132 132.173 49.5077 132.655 49.6632L133.541 49.9549C133.985 50.0949 134.401 50.266 134.79 50.4682C135.186 50.6704 135.505 50.9388 135.746 51.2732C135.995 51.5999 136.12 52.0393 136.12 52.5916C136.12 53.4316 135.828 54.081 135.245 54.5399C134.661 54.9988 133.884 55.2282 132.911 55.2282ZM138.84 55.0532V54.9832L141.803 45.9532H143.903L146.866 54.9832V55.0532H145.501L142.946 46.9682H142.666L140.111 55.0532H138.84ZM140.765 52.4049L141.126 51.3082H144.486L144.848 52.4049H140.765ZM150.198 55.0532V45.9532H151.504V53.9566H155.798V55.0532H150.198ZM164.2 55.0532V45.9532H167.444C168.603 45.9532 169.446 46.1943 169.975 46.6766C170.512 47.151 170.78 47.7888 170.78 48.5899C170.78 49.391 170.512 50.0327 169.975 50.5149C169.446 50.9893 168.603 51.2266 167.444 51.2266H165.507V55.0532H164.2ZM165.507 50.1766H167.385C168.116 50.1766 168.641 50.0482 168.96 49.7916C169.287 49.5349 169.45 49.1343 169.45 48.5899C169.45 48.0454 169.287 47.6449 168.96 47.3882C168.641 47.1316 168.116 47.0032 167.385 47.0032H165.507V50.1766ZM176.174 55.0532L173.257 46.0232V45.9532H174.634L177.189 53.9332H177.469L180.001 45.9532H181.284V46.0232L178.367 55.0532H176.174ZM186.937 55.0532V47.0499H183.915V45.9532H191.265V47.0499H188.244V55.0532H186.937ZM199.671 55.0532V45.9532H200.977V53.9566H205.271V55.0532H199.671ZM209.575 55.0532V47.0499H206.553V45.9532H213.903V47.0499H210.881V55.0532H209.575ZM217.406 55.0532V45.9532H220.381C221.952 45.9532 223.087 46.3538 223.787 47.1549C224.495 47.9482 224.849 49.0643 224.849 50.5032C224.849 51.9421 224.495 53.0621 223.787 53.8632C223.087 54.6566 221.952 55.0532 220.381 55.0532H217.406ZM218.724 53.9566H220.264C221.05 53.9566 221.68 53.8321 222.154 53.5832C222.636 53.3266 222.982 52.9416 223.192 52.4282C223.41 51.9149 223.519 51.2732 223.519 50.5032C223.519 49.7254 223.41 49.0838 223.192 48.5782C222.982 48.0649 222.636 47.6838 222.154 47.4349C221.68 47.1782 221.05 47.0499 220.264 47.0499H218.724V53.9566Z" fill="#FAF33E"/>
<path d="M60.3503 30.5257C60.3503 47.191 46.8404 60.7009 30.1752 60.7009C13.5099 60.7009 0 47.191 0 30.5257C0 13.8605 13.5099 0.350586 30.1752 0.350586C46.8404 0.350586 60.3503 13.8605 60.3503 30.5257Z" fill="#FAF33E"/>
<path d="M33.6145 14.976C32.0613 15.5571 30.9448 17.4898 30.4021 19.0182C29.0173 22.9025 27.7823 26.8437 26.4786 30.7658C26.4349 30.8922 26.3538 31.0627 26.2353 31.3974C23.2537 31.1827 20.4281 31.8648 18.1201 33.7028C18.7938 31.5048 19.2616 29.5658 19.9602 27.3742C20.6838 25.1131 21.4697 22.8772 22.212 20.6288C24.0459 15.0708 28.2376 13.6939 33.6145 14.976Z" fill="#090C08"/>
<path d="M43.9592 40.2372C42.3216 39.4091 37.7753 36.7794 35.6382 35.4961C35.1387 35.199 34.8668 34.2382 34.6581 33.6187C33.3935 29.8258 32.1416 26.0266 30.9528 22.2085C30.2383 19.9201 31.3196 17.9288 32.6537 16.2473C34.0448 14.5026 35.8848 15.3307 37.0608 17.7898C38.4582 21.6838 39.7355 25.622 41.0254 29.5477C41.8916 32.1837 42.7199 34.8387 43.5419 37.4937C43.7189 38.069 44.1047 39.1562 44.3639 39.8832C44.4524 40.1297 44.1932 40.351 43.9592 40.2372Z" fill="#090C08"/>
<path d="M23.1308 40.9767C22.8009 41.9903 22.5269 43.0289 22.1472 44.0238C21.3939 45.9884 19.769 46.8894 17.8764 46.4702C15.685 45.9571 14.857 43.4919 15.3861 41.8777C15.6725 40.9454 16.0834 39.181 16.7745 37.5292C17.2663 36.2653 18.3744 35.8712 19.8935 36.1527C20.3417 36.2341 20.902 36.4656 21.3192 36.672C23.1578 37.5855 23.7617 39.0204 23.1308 40.9767Z" fill="#090C08"/>
<path d="M45.1566 43.2356C45.144 44.4676 43.7727 45.7694 42.7252 46.1441C41.6397 46.5378 39.9764 46.1758 38.8782 45.5789C33.4694 42.6578 28.1813 39.5207 22.817 36.517C21.5346 35.8058 19.8587 34.758 17.332 35.3739C19.0778 32.2242 25.9022 30.9859 28.7717 32.5226C32.3204 34.4214 35.8056 36.4408 39.3162 38.4348C40.6811 39.2095 42.8459 40.4987 43.3855 40.7908C44.5472 41.4131 45.1757 41.7624 45.1694 43.242L45.1566 43.2356Z" fill="#090C08"/>
<path d="M211.784 38.1863C209.575 38.1863 207.726 37.6481 206.235 36.5715C204.744 35.4673 203.613 33.9352 202.84 31.9753C202.094 30.0154 201.722 27.7518 201.722 25.1846C201.722 22.5897 202.094 20.3262 202.84 18.3938C203.613 16.4615 204.744 14.9571 206.235 13.8805C207.753 12.8039 209.617 12.2656 211.825 12.2656C213.619 12.2656 215.069 12.6245 216.173 13.3422C217.304 14.0599 218.133 14.9571 218.657 16.0337H219.651V12.8039H224.744V37.6481H219.651V34.4183H218.657C218.133 35.4397 217.304 36.323 216.173 37.0684C215.069 37.8137 213.605 38.1863 211.784 38.1863ZM213.067 33.9628C214.944 33.9628 216.435 33.1761 217.539 31.6026C218.643 30.0016 219.195 27.876 219.195 25.226C219.195 22.5759 218.643 20.4642 217.539 18.8907C216.435 17.2897 214.944 16.4891 213.067 16.4891C211.3 16.4891 209.934 17.2345 208.968 18.7251C208.002 20.2158 207.519 22.3827 207.519 25.226C207.519 28.0693 208.002 30.2362 208.968 31.7269C209.934 33.2175 211.3 33.9628 213.067 33.9628Z" fill="white"/>
<path d="M183.833 38.1863C181.625 38.1863 179.775 37.6481 178.285 36.5715C176.794 35.4673 175.662 33.9352 174.889 31.9753C174.144 30.0154 173.771 27.7518 173.771 25.1846C173.771 22.5897 174.144 20.3262 174.889 18.3938C175.662 16.4615 176.794 14.9571 178.285 13.8805C179.803 12.8039 181.666 12.2656 183.875 12.2656C185.669 12.2656 187.118 12.6245 188.222 13.3422C189.354 14.0599 190.182 14.9571 190.707 16.0337H191.701V12.8039H196.794V37.6481H191.701V34.4183H190.707C190.182 35.4397 189.354 36.323 188.222 37.0684C187.118 37.8137 185.655 38.1863 183.833 38.1863ZM185.117 33.9628C186.994 33.9628 188.485 33.1761 189.589 31.6026C190.693 30.0016 191.245 27.876 191.245 25.226C191.245 22.5759 190.693 20.4642 189.589 18.8907C188.485 17.2897 186.994 16.4891 185.117 16.4891C183.35 16.4891 181.984 17.2345 181.018 18.7251C180.052 20.2158 179.568 22.3827 179.568 25.226C179.568 28.0693 180.052 30.2362 181.018 31.7269C181.984 33.2175 183.35 33.9628 185.117 33.9628Z" fill="white"/>
<path d="M155.457 37.6479L148.128 13.0522V12.8037H153.759L159.556 33.0517H160.55L166.388 12.8037H171.523V13.0522L164.194 37.6479H155.457Z" fill="white"/>
<path d="M137.339 38.269C134.8 38.269 132.743 37.8549 131.17 37.0268C129.624 36.171 128.464 35.0806 127.691 33.7556C126.946 32.4306 126.532 31.078 126.449 29.6977H131.832C131.943 30.4707 132.219 31.2022 132.66 31.8923C133.13 32.5824 133.764 33.1345 134.565 33.5486C135.366 33.9626 136.373 34.1697 137.588 34.1697C138.968 34.1697 140.003 33.9074 140.693 33.3829C141.383 32.8309 141.728 32.1131 141.728 31.2298C141.728 30.4845 141.439 29.8496 140.859 29.3251C140.279 28.773 139.368 28.2761 138.126 27.8344L135.145 26.8407C133.764 26.3438 132.495 25.8055 131.335 25.2258C130.203 24.6185 129.292 23.8594 128.602 22.9484C127.94 22.0099 127.609 20.8229 127.609 19.3874C127.609 17.2343 128.409 15.4952 130.01 14.1701C131.611 12.8451 133.847 12.1826 136.718 12.1826C138.788 12.1826 140.486 12.5277 141.811 13.2178C143.164 13.8803 144.185 14.7912 144.875 15.9506C145.565 17.0824 145.966 18.3522 146.076 19.7601H140.9C140.762 18.7387 140.334 17.883 139.617 17.1928C138.926 16.5027 137.891 16.1577 136.511 16.1577C135.324 16.1577 134.413 16.4061 133.778 16.903C133.171 17.3999 132.867 18.0624 132.867 18.8905C132.867 19.7187 133.171 20.4088 133.778 20.9609C134.413 21.4854 135.366 21.9684 136.635 22.4101L139.575 23.3625C140.955 23.8318 142.211 24.37 143.343 24.9773C144.475 25.557 145.358 26.3162 145.993 27.2547C146.656 28.1657 146.987 29.3389 146.987 30.7743C146.987 33.0103 146.159 34.8184 144.503 36.1986C142.874 37.5788 140.486 38.269 137.339 38.269Z" fill="white"/>
<path d="M109.058 38.1863C106.85 38.1863 105 37.6481 103.509 36.5715C102.019 35.4673 100.887 33.9352 100.114 31.9753C99.3688 30.0154 98.9961 27.7518 98.9961 25.1846C98.9961 22.5897 99.3688 20.3262 100.114 18.3938C100.887 16.4615 102.019 14.9571 103.509 13.8805C105.028 12.8039 106.891 12.2656 109.099 12.2656C110.894 12.2656 112.343 12.6245 113.447 13.3422C114.579 14.0599 115.407 14.9571 115.932 16.0337H116.925V12.8039H122.018V37.6481H116.925V34.4183H115.932C115.407 35.4397 114.579 36.323 113.447 37.0684C112.343 37.8137 110.88 38.1863 109.058 38.1863ZM110.342 33.9628C112.219 33.9628 113.709 33.1761 114.814 31.6026C115.918 30.0016 116.47 27.876 116.47 25.226C116.47 22.5759 115.918 20.4642 114.814 18.8907C113.709 17.2897 112.219 16.4891 110.342 16.4891C108.575 16.4891 107.208 17.2345 106.242 18.7251C105.276 20.2158 104.793 22.3827 104.793 25.226C104.793 28.0693 105.276 30.2362 106.242 31.7269C107.208 33.2175 108.575 33.9628 110.342 33.9628Z" fill="white"/>
<path d="M68.2793 37.648V37.3995L78.3826 5.35059H87.5749L97.7196 37.3995V37.648H91.7156L83.31 9.86394H82.3162L73.8278 37.648H68.2793ZM75.7325 28.9111L77.099 24.3564H88.4859L89.8523 28.9111H75.7325Z" fill="white"/>
</svg>
