<svg width="38" height="38" viewBox="0 0 38 38" fill="none" xmlns="http://www.w3.org/2000/svg">
<path d="M37.3852 19C37.3852 29.3236 29.0162 37.6926 18.6926 37.6926C8.36896 37.6926 0 29.3236 0 19C0 8.67636 8.36896 0.307404 18.6926 0.307404C29.0162 0.307404 37.3852 8.67636 37.3852 19Z" fill="#FAF33E"/>
<path d="M20.8229 9.36748C19.8608 9.72743 19.1691 10.9247 18.8329 11.8715C17.9751 14.2777 17.21 16.7191 16.4024 19.1488C16.3754 19.227 16.3252 19.3327 16.2517 19.54C14.4047 19.407 12.6543 19.8296 11.2246 20.9681C11.6419 19.6066 11.9317 18.4054 12.3645 17.0478C12.8127 15.6471 13.2996 14.262 13.7594 12.8692C14.8955 9.42616 17.4921 8.57323 20.8229 9.36748Z" fill="#090C08"/>
<path d="M27.231 25.0161C26.2166 24.5031 23.4003 22.8741 22.0764 22.0791C21.767 21.8951 21.5985 21.2999 21.4693 20.9161C20.6859 18.5665 19.9104 16.2131 19.174 13.8478C18.7314 12.4303 19.4012 11.1967 20.2276 10.1551C21.0893 9.0743 22.2292 9.58728 22.9577 11.1106C23.8233 13.5228 24.6146 15.9624 25.4136 18.3942C25.9502 20.0272 26.4633 21.6719 26.9725 23.3166C27.0822 23.6729 27.3211 24.3465 27.4817 24.7968C27.5366 24.9495 27.376 25.0866 27.231 25.0161Z" fill="#090C08"/>
<path d="M14.329 25.474C14.1246 26.1019 13.9549 26.7453 13.7196 27.3616C13.253 28.5786 12.2464 29.1367 11.074 28.877C9.7165 28.5592 9.20357 27.0321 9.53138 26.0321C9.70878 25.4546 9.96332 24.3616 10.3914 23.3384C10.6961 22.5555 11.3825 22.3113 12.3235 22.4857C12.6012 22.5361 12.9483 22.6795 13.2067 22.8074C14.3457 23.3733 14.7198 24.2621 14.329 25.474Z" fill="#090C08"/>
<path d="M27.9728 26.8733C27.965 27.6365 27.1155 28.4429 26.4667 28.675C25.7942 28.9189 24.7638 28.6947 24.0835 28.3249C20.733 26.5153 17.4571 24.572 14.1341 22.7113C13.3397 22.2707 12.3015 21.6216 10.7363 22.0032C11.8178 20.052 16.0453 19.2849 17.8228 20.2369C20.0212 21.4131 22.1801 22.6641 24.3549 23.8993C25.2004 24.3793 26.5414 25.1778 26.8756 25.3588C27.5953 25.7443 27.9846 25.9607 27.9807 26.8772L27.9728 26.8733Z" fill="#090C08"/>
</svg>
