<svg width="226" height="61" viewBox="0 0 226 61" fill="none" xmlns="http://www.w3.org/2000/svg">
<path d="M74.3644 54.8659C73.12 54.8659 72.2061 54.5276 71.6228 53.8509C71.0472 53.1742 70.7594 52.202 70.7594 50.9342V45.6026H72.0894V50.9926C72.0894 51.9726 72.2722 52.6881 72.6378 53.1392C73.0111 53.5904 73.5944 53.8159 74.3878 53.8159C75.1811 53.8159 75.7606 53.5904 76.1261 53.1392C76.4994 52.6881 76.6861 51.9726 76.6861 50.9926V45.6026H77.9694V50.9342C77.9694 52.202 77.6817 53.1742 77.1061 53.8509C76.5383 54.5276 75.6244 54.8659 74.3644 54.8659ZM82.0816 54.7026V45.6026H84.4616L88.0782 53.6642H88.3582V45.6026H89.5482V54.7026H87.1682L83.5516 46.6409H83.2716V54.7026H82.0816ZM93.7986 54.7026V45.6026H95.1052V54.7026H93.7986ZM101.405 54.7026L98.4886 45.6726V45.6026H99.8652L102.42 53.5826H102.7L105.232 45.6026H106.515V45.6726L103.599 54.7026H101.405ZM109.846 54.7026V45.6026H115.68V46.6992H111.153V49.2776H114.723V50.3276H111.153V53.6059H115.75V54.7026H109.846ZM119.534 54.7026V45.6026H122.929C123.699 45.6026 124.318 45.7115 124.784 45.9292C125.251 46.147 125.589 46.4387 125.799 46.8042C126.009 47.1698 126.114 47.5781 126.114 48.0292C126.114 48.6204 125.947 49.1181 125.613 49.5226C125.286 49.927 124.8 50.207 124.154 50.3626L126.371 54.6326V54.7026H124.994L122.859 50.5376H120.818V54.7026H119.534ZM120.818 49.5342H122.848C123.548 49.5342 124.045 49.4098 124.341 49.1609C124.637 48.9042 124.784 48.5465 124.784 48.0876C124.784 47.6209 124.637 47.267 124.341 47.0259C124.045 46.777 123.548 46.6526 122.848 46.6526H120.818V49.5342ZM132.911 54.8776C132.32 54.8776 131.799 54.7959 131.348 54.6326C130.905 54.4692 130.528 54.2437 130.216 53.9559C129.913 53.6604 129.676 53.3181 129.505 52.9292C129.341 52.5404 129.244 52.1204 129.213 51.6692H130.473C130.496 52.027 130.601 52.3731 130.788 52.7076C130.975 53.0342 131.247 53.3026 131.605 53.5126C131.97 53.7226 132.425 53.8276 132.97 53.8276C133.561 53.8276 134.024 53.6992 134.358 53.4426C134.693 53.1781 134.86 52.8204 134.86 52.3692C134.86 51.9181 134.696 51.572 134.37 51.3309C134.051 51.0898 133.646 50.8876 133.156 50.7242L132.281 50.4326C131.838 50.2848 131.414 50.1137 131.01 49.9192C130.605 49.717 130.275 49.4526 130.018 49.1259C129.761 48.7992 129.633 48.3715 129.633 47.8426C129.633 47.3292 129.758 46.8937 130.006 46.5359C130.255 46.1781 130.601 45.9059 131.045 45.7192C131.488 45.5248 132.001 45.4276 132.585 45.4276C133.293 45.4276 133.876 45.5559 134.335 45.8126C134.794 46.0615 135.14 46.392 135.373 46.8042C135.606 47.2165 135.739 47.6715 135.77 48.1692H134.51C134.486 47.8815 134.405 47.6092 134.265 47.3526C134.133 47.0959 133.926 46.8859 133.646 46.7226C133.366 46.5592 132.997 46.4776 132.538 46.4776C132.04 46.4776 131.64 46.5904 131.336 46.8159C131.041 47.0337 130.893 47.337 130.893 47.7259C130.893 48.1615 131.064 48.4959 131.406 48.7292C131.756 48.9626 132.173 49.157 132.655 49.3126L133.541 49.6042C133.985 49.7442 134.401 49.9154 134.79 50.1176C135.186 50.3198 135.505 50.5881 135.746 50.9226C135.995 51.2492 136.12 51.6887 136.12 52.2409C136.12 53.0809 135.828 53.7304 135.245 54.1892C134.661 54.6481 133.884 54.8776 132.911 54.8776ZM138.84 54.7026V54.6326L141.803 45.6026H143.903L146.866 54.6326V54.7026H145.501L142.946 46.6176H142.666L140.111 54.7026H138.84ZM140.765 52.0542L141.126 50.9576H144.486L144.848 52.0542H140.765ZM150.198 54.7026V45.6026H151.504V53.6059H155.798V54.7026H150.198ZM164.2 54.7026V45.6026H167.444C168.603 45.6026 169.446 45.8437 169.975 46.3259C170.512 46.8004 170.78 47.4381 170.78 48.2392C170.78 49.0404 170.512 49.682 169.975 50.1642C169.446 50.6387 168.603 50.8759 167.444 50.8759H165.507V54.7026H164.2ZM165.507 49.8259H167.385C168.116 49.8259 168.641 49.6976 168.96 49.4409C169.287 49.1842 169.45 48.7837 169.45 48.2392C169.45 47.6948 169.287 47.2942 168.96 47.0376C168.641 46.7809 168.116 46.6526 167.385 46.6526H165.507V49.8259ZM176.174 54.7026L173.257 45.6726V45.6026H174.634L177.189 53.5826H177.469L180.001 45.6026H181.284V45.6726L178.367 54.7026H176.174ZM186.937 54.7026V46.6992H183.915V45.6026H191.265V46.6992H188.244V54.7026H186.937ZM199.671 54.7026V45.6026H200.977V53.6059H205.271V54.7026H199.671ZM209.575 54.7026V46.6992H206.553V45.6026H213.903V46.6992H210.881V54.7026H209.575ZM217.406 54.7026V45.6026H220.381C221.952 45.6026 223.087 46.0031 223.787 46.8042C224.495 47.5976 224.849 48.7137 224.849 50.1526C224.849 51.5915 224.495 52.7115 223.787 53.5126C223.087 54.3059 221.952 54.7026 220.381 54.7026H217.406ZM218.724 53.6059H220.264C221.05 53.6059 221.68 53.4815 222.154 53.2326C222.636 52.9759 222.982 52.5909 223.192 52.0776C223.41 51.5642 223.519 50.9226 223.519 50.1526C223.519 49.3748 223.41 48.7331 223.192 48.2276C222.982 47.7142 222.636 47.3331 222.154 47.0842C221.68 46.8276 221.05 46.6992 220.264 46.6992H218.724V53.6059Z" fill="#FAF33E"/>
<path d="M60.3503 30.1752C60.3503 46.8404 46.8404 60.3503 30.1752 60.3503C13.5099 60.3503 0 46.8404 0 30.1752C0 13.5099 13.5099 0 30.1752 0C46.8404 0 60.3503 13.5099 60.3503 30.1752Z" fill="#FAF33E"/>
<path d="M33.6145 14.6255C32.0613 15.2066 30.9448 17.1393 30.4021 18.6677C29.0173 22.552 27.7823 26.4932 26.4786 30.4154C26.4349 30.5417 26.3538 30.7122 26.2353 31.0469C23.2537 30.8322 20.4281 31.5143 18.1201 33.3523C18.7938 31.1543 19.2616 29.2153 19.9602 27.0237C20.6838 24.7626 21.4697 22.5268 22.212 20.2783C24.0459 14.7203 28.2376 13.3434 33.6145 14.6255Z" fill="#090C08"/>
<path d="M43.9592 39.8869C42.3216 39.0588 37.7753 36.429 35.6382 35.1458C35.1387 34.8487 34.8668 33.8878 34.6581 33.2683C33.3935 29.4754 32.1416 25.6763 30.9528 21.8581C30.2383 19.5697 31.3196 17.5785 32.6537 15.897C34.0448 14.1523 35.8848 14.9804 37.0608 17.4394C38.4582 21.3334 39.7355 25.2717 41.0254 29.1973C41.8916 31.8334 42.7199 34.4884 43.5419 37.1434C43.7189 37.7186 44.1047 38.8059 44.3639 39.5329C44.4524 39.7794 44.1932 40.0007 43.9592 39.8869Z" fill="#090C08"/>
<path d="M23.1308 40.6261C22.8009 41.6397 22.5269 42.6783 22.1472 43.6731C21.3939 45.6378 19.769 46.5387 17.8764 46.1195C15.685 45.6065 14.857 43.1413 15.3861 41.527C15.6725 40.5948 16.0834 38.8304 16.7745 37.1786C17.2663 35.9147 18.3744 35.5205 19.8935 35.8021C20.3417 35.8834 20.902 36.1149 21.3192 36.3214C23.1578 37.2349 23.7617 38.6698 23.1308 40.6261Z" fill="#090C08"/>
<path d="M45.1566 42.8849C45.144 44.1169 43.7727 45.4187 42.7252 45.7934C41.6397 46.1871 39.9764 45.8251 38.8782 45.2282C33.4694 42.3071 28.1813 39.17 22.817 36.1663C21.5346 35.4551 19.8587 34.4073 17.332 35.0232C19.0778 31.8735 25.9022 30.6352 28.7717 32.1719C32.3204 34.0707 35.8056 36.0901 39.3162 38.0841C40.6811 38.8588 42.8459 40.1479 43.3855 40.4401C44.5472 41.0624 45.1757 41.4117 45.1694 42.8913L45.1566 42.8849Z" fill="#090C08"/>
<path d="M211.784 37.8356C209.575 37.8356 207.726 37.2973 206.235 36.2207C204.744 35.1166 203.613 33.5845 202.84 31.6246C202.094 29.6646 201.722 27.4011 201.722 24.8338C201.722 22.239 202.094 19.9754 202.84 18.0431C203.613 16.1108 204.744 14.6063 206.235 13.5298C207.753 12.4532 209.617 11.9149 211.825 11.9149C213.619 11.9149 215.069 12.2737 216.173 12.9915C217.304 13.7092 218.133 14.6063 218.657 15.6829H219.651V12.4532H224.744V37.2973H219.651V34.0676H218.657C218.133 35.0889 217.304 35.9723 216.173 36.7176C215.069 37.4629 213.605 37.8356 211.784 37.8356ZM213.067 33.6121C214.944 33.6121 216.435 32.8254 217.539 31.2519C218.643 29.6508 219.195 27.5253 219.195 24.8752C219.195 22.2252 218.643 20.1135 217.539 18.54C216.435 16.9389 214.944 16.1384 213.067 16.1384C211.3 16.1384 209.934 16.8837 208.968 18.3744C208.002 19.865 207.519 22.032 207.519 24.8752C207.519 27.7185 208.002 29.8855 208.968 31.3761C209.934 32.8668 211.3 33.6121 213.067 33.6121Z" fill="white"/>
<path d="M183.833 37.8356C181.625 37.8356 179.775 37.2973 178.285 36.2207C176.794 35.1166 175.662 33.5845 174.889 31.6246C174.144 29.6646 173.771 27.4011 173.771 24.8338C173.771 22.239 174.144 19.9754 174.889 18.0431C175.662 16.1108 176.794 14.6063 178.285 13.5298C179.803 12.4532 181.666 11.9149 183.875 11.9149C185.669 11.9149 187.118 12.2737 188.222 12.9915C189.354 13.7092 190.182 14.6063 190.707 15.6829H191.701V12.4532H196.794V37.2973H191.701V34.0676H190.707C190.182 35.0889 189.354 35.9723 188.222 36.7176C187.118 37.4629 185.655 37.8356 183.833 37.8356ZM185.117 33.6121C186.994 33.6121 188.485 32.8254 189.589 31.2519C190.693 29.6508 191.245 27.5253 191.245 24.8752C191.245 22.2252 190.693 20.1135 189.589 18.54C188.485 16.9389 186.994 16.1384 185.117 16.1384C183.35 16.1384 181.984 16.8837 181.018 18.3744C180.052 19.865 179.568 22.032 179.568 24.8752C179.568 27.7185 180.052 29.8855 181.018 31.3761C181.984 32.8668 183.35 33.6121 185.117 33.6121Z" fill="white"/>
<path d="M155.457 37.2975L148.128 12.7018V12.4533H153.759L159.556 32.7013H160.55L166.388 12.4533H171.523V12.7018L164.194 37.2975H155.457Z" fill="white"/>
<path d="M137.339 37.9183C134.8 37.9183 132.743 37.5043 131.17 36.6761C129.624 35.8204 128.464 34.73 127.691 33.405C126.946 32.08 126.532 30.7273 126.449 29.3471H131.832C131.943 30.12 132.219 30.8516 132.66 31.5417C133.13 32.2318 133.764 32.7839 134.565 33.198C135.366 33.612 136.373 33.8191 137.588 33.8191C138.968 33.8191 140.003 33.5568 140.693 33.0323C141.383 32.4802 141.728 31.7625 141.728 30.8792C141.728 30.1338 141.439 29.4989 140.859 28.9745C140.279 28.4224 139.368 27.9255 138.126 27.4838L135.145 26.49C133.764 25.9932 132.495 25.4549 131.335 24.8752C130.203 24.2679 129.292 23.5087 128.602 22.5978C127.94 21.6592 127.609 20.4722 127.609 19.0368C127.609 16.8836 128.409 15.1446 130.01 13.8195C131.611 12.4945 133.847 11.832 136.718 11.832C138.788 11.832 140.486 12.1771 141.811 12.8672C143.164 13.5297 144.185 14.4406 144.875 15.6C145.565 16.7318 145.966 18.0016 146.076 19.4095H140.9C140.762 18.3881 140.334 17.5323 139.617 16.8422C138.926 16.1521 137.891 15.8071 136.511 15.8071C135.324 15.8071 134.413 16.0555 133.778 16.5524C133.171 17.0493 132.867 17.7118 132.867 18.5399C132.867 19.3681 133.171 20.0582 133.778 20.6103C134.413 21.1348 135.366 21.6178 136.635 22.0595L139.575 23.0119C140.955 23.4811 142.211 24.0194 143.343 24.6267C144.475 25.2064 145.358 25.9656 145.993 26.9041C146.656 27.8151 146.987 28.9883 146.987 30.4237C146.987 32.6597 146.159 34.4678 144.503 35.848C142.874 37.2282 140.486 37.9183 137.339 37.9183Z" fill="white"/>
<path d="M109.058 37.8356C106.85 37.8356 105 37.2973 103.509 36.2207C102.019 35.1166 100.887 33.5845 100.114 31.6246C99.3688 29.6646 98.9961 27.4011 98.9961 24.8338C98.9961 22.239 99.3688 19.9754 100.114 18.0431C100.887 16.1108 102.019 14.6063 103.509 13.5298C105.028 12.4532 106.891 11.9149 109.099 11.9149C110.894 11.9149 112.343 12.2737 113.447 12.9915C114.579 13.7092 115.407 14.6063 115.932 15.6829H116.925V12.4532H122.018V37.2973H116.925V34.0676H115.932C115.407 35.0889 114.579 35.9723 113.447 36.7176C112.343 37.4629 110.88 37.8356 109.058 37.8356ZM110.342 33.6121C112.219 33.6121 113.709 32.8254 114.814 31.2519C115.918 29.6508 116.47 27.5253 116.47 24.8752C116.47 22.2252 115.918 20.1135 114.814 18.54C113.709 16.9389 112.219 16.1384 110.342 16.1384C108.575 16.1384 107.208 16.8837 106.242 18.3744C105.276 19.865 104.793 22.032 104.793 24.8752C104.793 27.7185 105.276 29.8855 106.242 31.3761C107.208 32.8668 108.575 33.6121 110.342 33.6121Z" fill="white"/>
<path d="M68.2793 37.2974V37.0489L78.3826 5H87.5749L97.7196 37.0489V37.2974H91.7156L83.31 9.51335H82.3162L73.8278 37.2974H68.2793ZM75.7325 28.5605L77.099 24.0058H88.4859L89.8523 28.5605H75.7325Z" fill="white"/>
</svg>
